<?xml version="1.0" encoding="UTF-8" standalone="no"?>
<!-- Uploaded to: SVG Repo, www.svgrepo.com, Generator: SVG Repo Mixer Tools -->

<svg
   width="576.98389"
   height="576.98236"
   viewBox="0 0 14.424597 14.424559"
   fill="none"
   version="1.1"
   id="svg6"
   xmlns="http://www.w3.org/2000/svg"
   xmlns:svg="http://www.w3.org/2000/svg">
  <defs
     id="defs10" />
  <path
     fill-rule="evenodd"
     clip-rule="evenodd"
     d="m 1.6109176,1.6109099 c -2.14789,2.14789 -2.14789,5.6303 0,7.7782 2.14788,2.1479001 5.63033,2.1479001 7.77813,0 2.1479004,-2.1479 2.1479004,-5.63031 0,-7.7782 -2.1478,-2.14787997 -5.63025,-2.14787997 -7.77813,0 z m 6.36393,6.364 c -1.36681,1.3668 -3.58289,1.3668 -4.94972,0 -1.36684,-1.36687 -1.36684,-3.58295 0,-4.94978 1.36683,-1.36684 3.58291,-1.36684 4.94972,0 1.3669,1.36683 1.3669,3.58291 0,4.94978 z"
     fill="#000000"
     id="path2" />
  <path
     d="m 8.3284476,10.44971 c -0.5858,-0.5858001 -0.5858,-1.5355001 0,-2.1213001 0.5858,-0.5858 1.5355,-0.5858 2.1213004,0 l 3.5355,3.5355001 c 0.5858,0.5858 0.5858,1.5356 0,2.1213 -0.5857,0.5858 -1.5355,0.5858 -2.1213,0 z"
     fill="#000000"
     id="path4" />
</svg>
