<?xml version="1.0" encoding="UTF-8" standalone="no"?>
<!-- Uploaded to: SVG Repo, www.svgrepo.com, Generator: SVG Repo Mixer Tools -->

<svg
   width="666.66663"
   height="666.66663"
   viewBox="0 0 19.999999 19.999999"
   fill="none"
   version="1.1"
   id="svg8"
   xmlns="http://www.w3.org/2000/svg"
   xmlns:svg="http://www.w3.org/2000/svg">
  <defs
     id="defs12" />
  <path
     opacity="0.4"
     d="M 20,5.8100001 V 14.19 C 20,17 18.71,18.93 16.44,19.66 15.78,19.89 15.02,20 14.19,20 H 5.8100001 c -0.83,0 -1.59,-0.11 -2.25,-0.34 C 1.2900001,18.93 1.1920929e-7,17 1.1920929e-7,14.19 V 5.8100001 C 1.1920929e-7,2.1700001 2.1700001,1.1920929e-7 5.8100001,1.1920929e-7 H 14.19 C 17.83,1.1920929e-7 20,2.1700001 20,5.8100001 Z"
     fill="#292D32"
     id="path2"
     style="fill:#3e444c;fill-opacity:1" />
  <path
     d="m 16.4406,19.66 c -0.66,0.23 -1.42,0.34 -2.25,0.34 H 5.8105501 c -0.83,0 -1.59,-0.11 -2.25,-0.34 0.35,-2.64 3.11,-4.69 6.4399499,-4.69 3.33,0 6.0901,2.05 6.4401,4.69 z"
     fill="#292D32"
     id="path4"
     style="fill:#4d4f53;fill-opacity:1" />
  <path
     d="M 13.5799,9.5800001 C 13.5799,11.56 11.9799,13.17 9.9999001,13.17 c -1.98,0 -3.57998,-1.61 -3.57998,-3.5899999 0,-1.97998 1.59998,-3.58 3.57998,-3.58 1.9799999,0 3.5799999,1.60002 3.5799999,3.58 z"
     fill="#292D32"
     id="path6"
     style="fill:#4d4f53;fill-opacity:1" />
</svg>
